<svg xmlns:svg="http://www.w3.org/2000/svg" xmlns="http://www.w3.org/2000/svg" xmlns:xlink="http://www.w3.org/1999/xlink" version="1.1" id="svg633" x="0px" y="0px" viewBox="0 0 100 100" style="enable-background:new 0 0 100 100;" xml:space="preserve">
<style type="text/css">
	.st0{fill:#FFFFFF;}
</style>
<g>
	<path id="path651_00000182495793178195513290000018247932154073870215_" class="st0" d="M50,80.4c1.1,0,1.9,0.9,1.9,1.9   S51,84.2,50,84.2c-1.1,0-1.9-0.9-1.9-1.9S48.9,80.4,50,80.4"/>
	<path class="st0" d="M81.8,76.5c-6.5,0-11.7-5.3-11.7-11.7c0-6.4,5.3-11.7,11.7-11.7s11.7,5.3,11.7,11.7S88.3,76.5,81.8,76.5z    M81.8,57c-4.3,0-7.8,3.5-7.8,7.8c0,4.3,3.5,7.8,7.8,7.8s7.8-3.5,7.8-7.8C89.6,60.5,86.1,57,81.8,57z"/>
	<path class="st0" d="M28.5,100H1.9c-1,0-1.9-0.9-1.9-2v-3.9c0-4.7,1.9-9.1,5.5-12.5c3.4-3.3,8-5.1,12.7-5.1c5.9,0,11.7,2.9,15,7.4   c0.6,0.9,0.4,2.1-0.5,2.7c-0.9,0.6-2.1,0.4-2.7-0.5c-2.5-3.5-7.1-5.8-11.8-5.8c-7.7,0-14.3,6.3-14.3,13.7v2.1h24.6   c1.1,0,1.9,0.9,1.9,1.9S29.6,100,28.5,100z"/>
	<path class="st0" d="M98,100H71.5c-1.1,0-1.9-0.9-1.9-1.9s0.9-1.9,1.9-1.9h24.6v-2.1c0-7.4-6.5-13.7-14.3-13.7   c-4.7,0-9.3,2.3-11.8,5.8c-0.6,0.9-1.8,1.1-2.7,0.5c-0.9-0.6-1.1-1.8-0.5-2.7c3.2-4.5,9.1-7.4,15-7.4c4.6,0,9.3,1.9,12.7,5.1   c3.5,3.4,5.5,7.8,5.5,12.5v3.9C100,99.1,99.1,100,98,100z"/>
	<path class="st0" d="M18.2,76.5c-6.5,0-11.7-5.3-11.7-11.7c0-6.4,5.2-11.7,11.7-11.7s11.7,5.3,11.7,11.7S24.6,76.5,18.2,76.5z    M18.2,57c-4.3,0-7.8,3.5-7.8,7.8c0,4.3,3.5,7.8,7.8,7.8s7.8-3.5,7.8-7.8C26,60.5,22.5,57,18.2,57z"/>
	<path class="st0" d="M50,72.6c-8.6,0-15.6-7-15.6-15.6s7-15.6,15.6-15.6s15.6,7,15.6,15.6S58.6,72.6,50,72.6z M50,45.3   c-6.5,0-11.7,5.3-11.7,11.7S43.5,68.7,50,68.7S61.7,63.4,61.7,57S56.5,45.3,50,45.3z"/>
	<path class="st0" d="M41.5,36.2c-0.4,0-0.8-0.1-1.1-0.4c-0.6-0.4-0.9-1.2-0.8-1.9l1.4-8.4l-6.1-5.9c-0.5-0.5-0.7-1.3-0.5-2   s0.8-1.2,1.6-1.3l8.4-1.2l3.8-7.7c0.3-0.7,1-1.1,1.8-1.1l0,0c0.7,0,1.4,0.4,1.8,1.1l3.8,7.7l8.4,1.2c0.7,0.1,1.3,0.6,1.6,1.3   c0.2,0.7,0,1.5-0.5,2L59,25.5l1.4,8.4c0.1,0.7-0.2,1.5-0.8,1.9s-1.4,0.5-2.1,0.1l-7.5-4l-7.5,4C42.1,36.1,41.8,36.2,41.5,36.2z    M40.5,19.5l4,3.9c0.5,0.5,0.7,1.1,0.6,1.7l-0.9,5.5l5-2.6c0.6-0.3,1.2-0.3,1.8,0l5,2.6l-1-5.5c-0.1-0.6,0.1-1.3,0.6-1.7l4-3.9   l-5.5-0.8c-0.6-0.1-1.2-0.5-1.5-1.1l-2.5-5.1l-2.5,5.1c-0.3,0.6-0.8,1-1.5,1.1L40.5,19.5z"/>
	<path class="st0" d="M77,46.2c-0.4,0-0.8-0.1-1.1-0.4c-0.6-0.4-0.9-1.2-0.8-1.9l1-5.7l-4.1-4c-0.5-0.5-0.7-1.3-0.5-2   s0.8-1.2,1.6-1.3l5.7-0.8l2.5-5.2c0.3-0.7,1-1.1,1.8-1.1l0,0c0.7,0,1.4,0.4,1.8,1.1l2.5,5.2l5.7,0.8c0.7,0.1,1.3,0.6,1.6,1.3   c0.2,0.7,0,1.5-0.5,2l-4.1,4l1,5.7c0.1,0.7-0.2,1.5-0.8,1.9c-0.6,0.4-1.4,0.5-2.1,0.1L83,43.2l-5.1,2.7   C77.7,46.1,77.4,46.2,77,46.2z M77.5,34.2l2,2c0.5,0.5,0.7,1.1,0.6,1.7l-0.5,2.8l2.5-1.3c0.6-0.3,1.2-0.3,1.8,0l2.5,1.3L86,37.9   c-0.1-0.6,0.1-1.3,0.6-1.7l2-2l-2.8-0.4c-0.6-0.1-1.2-0.5-1.5-1.1L83,30.2l-1.3,2.5c-0.3,0.6-0.8,1-1.5,1.1L77.5,34.2z"/>
	<path class="st0" d="M10.6,46.2c-0.4,0-0.8-0.1-1.1-0.4c-0.6-0.4-0.9-1.2-0.8-1.9l1-5.7l-4.1-4c-0.5-0.5-0.7-1.3-0.5-2   s0.8-1.2,1.6-1.3l5.7-0.8l2.5-5.2c0.3-0.7,1-1.1,1.8-1.1l0,0c0.7,0,1.4,0.4,1.8,1.1l2.5,5.2l5.7,0.8c0.7,0.1,1.3,0.6,1.6,1.3   c0.2,0.7,0,1.5-0.5,2l-4.1,4l1,5.7c0.1,0.7-0.2,1.5-0.8,1.9c-0.6,0.4-1.4,0.5-2.1,0.1l-5.1-2.7l-5.1,2.7   C11.3,46.1,11,46.2,10.6,46.2z M11.1,34.2l2,2c0.5,0.5,0.7,1.1,0.6,1.7l-0.5,2.8l2.5-1.3c0.6-0.3,1.2-0.3,1.8,0l2.5,1.3l-0.5-2.8   c-0.1-0.6,0.1-1.3,0.6-1.7l2-2l-2.8-0.4c-0.6-0.1-1.2-0.5-1.5-1.1l-1.3-2.5l-1.3,2.5c-0.3,0.6-0.8,1-1.5,1.1L11.1,34.2z"/>
	<path class="st0" d="M71.5,100h-43c-1.1,0-1.9-0.9-1.9-1.9v-2c0-4.2,1.1-8.3,3.3-12c2-3.4,5-6.3,8.4-8.3c3.6-2.1,7.6-3.2,11.8-3.2   c6.3,0,12.1,2.4,16.6,6.9c1.4,1.4,2.6,2.9,3.6,4.6c2.1,3.6,3.3,7.7,3.3,12V98C73.4,99.1,72.6,100,71.5,100z M30.5,96.1h39.1   c0-3.5-0.9-7-2.7-10c-0.8-1.4-1.8-2.7-3-3.9c-3.7-3.7-8.6-5.7-13.8-5.7c-6.9,0-13.3,3.7-16.8,9.6C31.4,89.1,30.5,92.5,30.5,96.1z"/>
	<path class="st0" d="M62.4,92.1c-0.7,0-1.4-0.4-1.8-1.1c-0.9-1.9-2.4-3.6-4.2-4.8c-0.9-0.6-1.2-1.8-0.6-2.7   c0.6-0.9,1.8-1.2,2.7-0.6c2.4,1.6,4.3,3.8,5.6,6.4c0.5,1,0,2.1-0.9,2.6C62.9,92.1,62.6,92.1,62.4,92.1z"/>
</g>
</svg>