<?xml version="1.0" encoding="utf-8"?>
<!-- Generator: Adobe Illustrator 27.0.0, SVG Export Plug-In . SVG Version: 6.00 Build 0)  -->
<svg version="1.1" id="Layer_1" xmlns="http://www.w3.org/2000/svg" xmlns:xlink="http://www.w3.org/1999/xlink" x="0px" y="0px"
	 viewBox="0 0 100 100" style="enable-background:new 0 0 100 100;" xml:space="preserve">
<style type="text/css">
	.st0{fill:#FFFFFF;}
</style>
<g>
	<path class="st0" d="M82.9,20.6c-17.3-18-48.5-18-65.8,0C-0.5,37.5-1,67.4,15.7,84.9c0.5,0.6,1.4,0.6,2,0.1c0.6-0.5,0.6-1.4,0.1-2
		C-7.9,55.2,12.1,9.6,50,9.7c23.5-0.5,44.3,20.3,43.9,43.9c0.2,36.3-42.6,57.1-71,34.4c-0.6-0.5-1.5-0.4-2,0.2
		c-0.5,0.6-0.4,1.5,0.2,2c17.8,14.6,45.8,12.9,61.8-3.6C101,69.1,101,37.9,82.9,20.6L82.9,20.6z"/>
	<path class="st0" d="M50,88.3c-7.8,0-14.8-2.8-17.4-4.6c-0.7-0.4-1.5-0.3-1.9,0.4c-0.4,0.7-0.3,1.5,0.4,1.9
		c23.9,14.3,56.6-3.3,56.4-32.4C87.5,32.8,70.6,16.1,50,16.1c-0.7,0-1.4,0.7-1.4,1.4c0,0.7,0.7,1.4,1.4,1.4C96,20.5,96,86.5,50,88.3
		L50,88.3z"/>
	<path class="st0" d="M28.7,53.5c-0.4,1.5,0,3.1,1.2,4.2l10.6,10.6c1.8,1.8,4.7,1.8,6.5,0L62.4,53c0.6-0.6,0.6-1.4,0-2
		c-0.6-0.6-1.4-0.6-2,0L45,66.4c-0.7,0.7-2,0.7-2.6,0L31.9,55.9c-1.6-1.6,1-4.3,2.6-2.6l8.3,8.3c0.6,0.6,1.4,0.6,2,0l20.8-20.8
		c0.7-0.7,1.9-0.7,2.6,0.1c0.2,0.2,1.2,1.3,0.1,2.5L65.5,46c-0.6,0.6-0.6,1.4,0,2c0.6,0.6,1.4,0.6,2,0l2.7-2.7
		c4.1-4.3-2.2-10.6-6.5-6.5l-20,19.9l-7.3-7.3C33.9,48.8,29.6,50.2,28.7,53.5L28.7,53.5z"/>
	<path class="st0" d="M40.7,17.2c-1.8,0-1.8,2.7,0,2.7C42.5,19.9,42.5,17.2,40.7,17.2z"/>
	<path class="st0" d="M32,20.8c-1.8,0-1.8,2.7,0,2.7C33.7,23.5,33.7,20.8,32,20.8z"/>
	<path class="st0" d="M24.4,29.3c1.8,0,1.8-2.7,0-2.7C22.7,26.5,22.7,29.3,24.4,29.3z"/>
	<path class="st0" d="M18.7,34c-1.8,0-1.8,2.7,0,2.7C20.4,36.7,20.4,34,18.7,34z"/>
	<path class="st0" d="M15.1,42.8c-1.8,0-1.8,2.7,0,2.7C16.8,45.4,16.8,42.8,15.1,42.8z"/>
	<path class="st0" d="M13.9,52.1c-1.8,0-1.8,2.7,0,2.7S15.6,52.1,13.9,52.1z"/>
	<path class="st0" d="M15.1,64.2c1.8,0,1.8-2.7,0-2.7C13.3,61.4,13.3,64.2,15.1,64.2z"/>
	<path class="st0" d="M18.6,70.2c-1.8,0-1.8,2.7,0,2.7C20.4,72.9,20.4,70.2,18.6,70.2z"/>
	<path class="st0" d="M24.4,80.4c1.8,0,1.8-2.7,0-2.7C22.6,77.7,22.6,80.4,24.4,80.4z"/>
</g>
</svg>
