<?xml version="1.0" encoding="utf-8"?>
<!-- Generator: Adobe Illustrator 27.0.0, SVG Export Plug-In . SVG Version: 6.00 Build 0)  -->
<svg version="1.1" id="AMT" xmlns="http://www.w3.org/2000/svg" xmlns:xlink="http://www.w3.org/1999/xlink" x="0px" y="0px"
	 viewBox="0 0 512 512" style="enable-background:new 0 0 512 512;" xml:space="preserve">
<style type="text/css">
	.st0{fill:#AA2222;}
	.st1{fill:#FFFFFF;}
</style>
<circle class="st0" cx="256" cy="232.3" r="232.3"/>
<g id="Outline">
	<path class="st1" d="M451.3,323.5c-3.7,0-6.7,3-6.7,6.7v67.3c0,11.2-9,20.2-20.2,20.2H94.4c-14.9,0-26.9-12-26.9-26.9V182.1
		c0-11.2,9-20.2,20.2-20.2h114.5c3.7,0,6.7-3,6.7-6.7s-3-6.7-6.7-6.7H87.7c-18.6,0-33.7,15.1-33.7,33.7v208.7
		c0,22.3,18.1,40.4,40.4,40.4h84.5c-7.1,15.4-19.7,27.4-35.4,33.8l-16.7,6.6h-12.2c-11.2,0-20.2,9-20.2,20.2v13.5
		c0,3.7,3,6.7,6.7,6.7h107.7c3.7,0,6.7-3,6.7-6.7s-3-6.7-6.7-6.7h-101v-6.7c0-3.7,3-6.7,6.7-6.7h282.8c3.7,0,6.7,3,6.7,6.7v6.7
		H235.8c-3.7,0-6.7,3-6.7,6.7s3,6.7,6.7,6.7h175.1c3.7,0,6.7-3,6.7-6.7v-13.5c0-11.2-9-20.2-20.2-20.2h-12.2l-16.7-6.6
		c-15.7-6.2-28.4-18.3-35.4-33.8h91.2c18.6,0,33.7-15.1,33.7-33.7v-67.3C458,326.5,455,323.5,451.3,323.5z M351.9,471.6H160.1
		c15.4-9.3,27.1-23.6,33.3-40.4h125C324.7,448,336.5,462.3,351.9,471.6z"/>
	<path class="st1" d="M424.3,148.4H296.4c-3.7,0-6.7,3-6.7,6.7s3,6.7,6.7,6.7h127.9c11.2,0,20.2,9,20.2,20.2v121.2
		c0,3.7,3,6.7,6.7,6.7s6.7-3,6.7-6.7V182.1C458,163.5,442.9,148.4,424.3,148.4z"/>
	<path class="st1" d="M175.6,186.4l-16,42.6c-3.5,9.5,1.3,20,10.8,23.6c0.2,0.1,0.4,0.2,0.6,0.3c8.2,2.7,17-0.6,21.5-7.9l13.5-22.5
		h9.7c0,3.7,3,6.7,6.7,6.7c3.7,0,6.7-3,6.7-6.7v-6.7c0-3.7-3-6.7-6.7-6.7h-20.2c-2.4,0-4.5,1.3-5.8,3.3L180.9,238
		c-1.2,1.9-3.5,2.8-5.6,2.1c-2.5-0.8-3.9-3.6-3-6.1c0-0.1,0-0.1,0.1-0.2l14.6-39l36-6h50.9l31.8,25.4c1.4,1.2,3.3,1.7,5.1,1.4
		l32.1-4.5c1.9-0.3,3.8,0.3,5.1,1.5c1.4,1.3,2.3,3,2.3,4.9c0,3.3-2.4,6.1-5.7,6.5l-40,5l-24.9-15c-3.2-1.9-7.3-0.9-9.3,2.3
		c-0.7,1.1-1,2.3-1,3.5v22.9h-47.1c-3.3,0-6.1,2.4-6.6,5.6l-6,35.8l-29.6,5.7H155c-3.7,0-6.7,3-6.7,6.7v47.1c0,3.7,3,6.7,6.7,6.7
		c13.8,0,26.2-8.4,31.2-21.3l57-5.7c2.3-0.3,4.3-1.6,5.4-3.7l17.2-34.3l17.8,8.9l6.1,37c0.6,3.2,3.4,5.6,6.6,5.6h20.2
		c8.6,0,16.2,5.4,19,13.5h-39.2c-3.7,0-6.7,3-6.7,6.7c0,3.7,3,6.7,6.7,6.7h47.1c3.7,0,6.7-3,6.7-6.7c0-13.8-8.5-26.3-21.4-31.3
		l-5.6-50.2c-0.3-1.9-1.3-3.8-2.9-4.9l-37.5-24.9v-14.1l16.7,10c1.3,0.8,2.8,1.1,4.3,0.9l42.3-5.3c10.9-1.3,18.8-11.3,17.4-22.2
		c-1.3-10.9-11.3-18.8-22.2-17.4c-0.2,0-0.3,0.1-0.5,0.1l-29.1,4.1l-31.4-25.1c-1.2-0.9-2.7-1.4-4.2-1.4h-3.7
		c2.4-4,3.7-8.8,3.7-13.5v-47.1c0-3.7-3-6.7-6.7-6.7H256c-18.6,0-33.7,15.1-33.7,33.7v20.2c0,4.7,1.3,9.4,3.7,13.5h-3.7
		c-0.3,0-0.8,0-1.1,0.1l-40.4,6.7C178.5,182.6,176.5,184.2,175.6,186.4z M175.2,316.7c0,8.6-5.4,16.2-13.5,19v-32.5h13.5V316.7z
		 M315.1,323.5h-13l-5.8-34.8c-0.3-2.1-1.7-4-3.6-4.9l-26.9-13.5c-3.4-1.7-7.4-0.3-9,3l0,0l-18.5,37.1l-49.5,5V302l28.2-5.5
		c2.8-0.5,4.9-2.7,5.4-5.5l5.8-34.8h46.1l36.1,24.1L315.1,323.5z M256,121.5h6.7v13.5H237C239.8,126.9,247.4,121.5,256,121.5z
		 M235.8,161.9v-13.5h26.9v13.5c0,7.4-6.1,13.5-13.5,13.5C241.9,175.3,235.8,169.3,235.8,161.9z"/>
	<path class="st1" d="M188.7,363.9c-8.5,0-16.1,5.4-18.9,13.5h-41.7c-3.7,0-6.7,3-6.7,6.7c0,3.7,3,6.7,6.7,6.7h41.7
		c3.6,10.4,15.1,16,25.6,12.4c5.8-2,10.4-6.6,12.4-12.4h189.7c3.7,0,6.7-3,6.7-6.7c0-3.7-3-6.7-6.7-6.7H207.6
		C204.7,369.3,197.2,363.9,188.7,363.9z M188.7,390.8c-3.7,0-6.7-3-6.7-6.7c0-3.7,3-6.7,6.7-6.7c3.7,0,6.7,3,6.7,6.7
		C195.4,387.8,192.4,390.8,188.7,390.8z"/>
	<path class="st1" d="M424.3,357.1c3.7,0,6.7-3,6.7-6.7V242.7c0-3.7-3-6.7-6.7-6.7h-26.9c-3.7,0-6.7,3-6.7,6.7v107.7
		c0,3.7,3,6.7,6.7,6.7H424.3z M404.1,303.3h13.5v13.5h-13.5V303.3z M417.6,289.8h-13.5v-13.5h13.5V289.8z M417.6,343.7h-13.5v-13.5
		h13.5V343.7z M404.1,249.4h13.5v13.5h-13.5V249.4z"/>
	<path class="st1" d="M87.7,235.9h26.9c3.7,0,6.7-3,6.7-6.7c0-3.7-3-6.7-6.7-6.7H87.7c-3.7,0-6.7,3-6.7,6.7
		C80.9,232.9,84,235.9,87.7,235.9z"/>
	<path class="st1" d="M87.7,262.9h26.9c3.7,0,6.7-3,6.7-6.7c0-3.7-3-6.7-6.7-6.7H87.7c-3.7,0-6.7,3-6.7,6.7
		C80.9,259.8,84,262.9,87.7,262.9z"/>
	<path class="st1" d="M121.3,283.1c0-3.7-3-6.7-6.7-6.7H87.7c-3.7,0-6.7,3-6.7,6.7c0,3.7,3,6.7,6.7,6.7h26.9
		C118.3,289.8,121.3,286.8,121.3,283.1z"/>
	<path class="st1" d="M114.6,310c0-3.7-3-6.7-6.7-6.7H87.7c-3.7,0-6.7,3-6.7,6.7s3,6.7,6.7,6.7h20.2
		C111.6,316.7,114.6,313.7,114.6,310z"/>
	<path class="st1" d="M87.7,330.2c-3.7,0-6.7,3-6.7,6.7c0,3.7,3,6.7,6.7,6.7h13.5c3.7,0,6.7-3,6.7-6.7c0-3.7-3-6.7-6.7-6.7H87.7z"/>
</g>
</svg>
