<?xml version="1.0" encoding="utf-8"?>
<!-- Generator: Adobe Illustrator 27.0.0, SVG Export Plug-In . SVG Version: 6.00 Build 0)  -->
<svg version="1.1" id="Capa_1" xmlns="http://www.w3.org/2000/svg" xmlns:xlink="http://www.w3.org/1999/xlink" x="0px" y="0px"
	 viewBox="0 0 512 512" style="enable-background:new 0 0 512 512;" xml:space="preserve">
<style type="text/css">
	.st0{fill:#AA2222;}
	.st1{fill:#FFFFFF;}
</style>
<circle class="st0" cx="256" cy="232.3" r="232.3"/>
<g>
	<g id="Page-1_79_">
		<g id="_x30_80---Stop-Frame-Animation">
			<path id="Shape_795_" class="st1" d="M420.8,145.8H91.2c-10.1,0-18.3,8.2-18.3,18.3v268.6c0,10.1,8.2,18.3,18.3,18.3h106.1
				l-12.2,24.4h-20.6c-10.1,0-18.3,8.2-18.3,18.3s8.2,18.3,18.3,18.3h183.1c10.1,0,18.3-8.2,18.3-18.3c0-10.1-8.2-18.3-18.3-18.3
				h-20.6L314.7,451h106.1c10.1,0,18.3-8.2,18.3-18.3V164.1C439.1,154,430.9,145.8,420.8,145.8L420.8,145.8z M91.2,158h329.6
				c3.4,0,6.1,2.7,6.1,6.1v238H85.1v-238C85.1,160.7,87.8,158,91.2,158L91.2,158z M353.7,493.7c0,3.4-2.7,6.1-6.1,6.1H164.4
				c-3.4,0-6.1-2.7-6.1-6.1c0-3.4,2.7-6.1,6.1-6.1h183.1C350.9,487.6,353.7,490.3,353.7,493.7z M313.3,475.4H198.7l12.2-24.4h90.1
				L313.3,475.4z M420.8,438.8H91.2c-3.4,0-6.1-2.7-6.1-6.1v-18.3h341.8v18.3C426.9,436,424.2,438.8,420.8,438.8L420.8,438.8z"/>
			<path id="Shape_794_" class="st1" d="M234.3,278.4c5.1,2.6,11.3,2.1,16-1.4l35.8-26.5c4.1-3.1,6.5-8,6.5-13.2
				c0-5.2-2.4-10-6.5-13.2l-35.8-26.5c-4.6-3.5-10.8-4-16-1.4c-5.5,2.8-8.9,8.4-8.8,14.5v53C225.4,270,228.8,275.6,234.3,278.4
				L234.3,278.4z M237.7,210.8c-0.1-1.5,0.7-3,2.1-3.7c0.4-0.2,0.9-0.3,1.4-0.3c0.7,0,1.3,0.2,1.8,0.6l35.9,26.5
				c1,0.8,1.6,2.1,1.6,3.4c0,1.3-0.6,2.5-1.6,3.4L243,267.2c-0.9,0.7-2.2,0.9-3.2,0.3c-1.4-0.7-2.2-2.1-2.1-3.7V210.8z"/>
			<path id="Shape_793_" class="st1" d="M103,383.8h0.4c3.2,0,5.9-2.5,6.1-5.7c0-0.6,4.8-61.5,45.8-61.5c40.9,0,45.8,60.9,45.8,61.5
				c0.2,3.2,2.9,5.7,6.1,5.7c3.2,0,5.9-2.5,6.1-5.7c0-0.6,4.8-61.5,45.8-61.5c40.9,0,45.7,60.9,45.8,61.5c0.2,3.1,2.8,5.6,6,5.7h0.1
				c3.1,0,5.7-2.3,6.1-5.4c0.1-0.6,7-56.6,43.8-61.4c3.3,11.8,14.8,19.3,27,17.6c12.1-1.8,21-12.2,20.8-24.5
				c-0.2-12.2-9.5-22.4-21.6-23.8c-12.2-1.4-23.5,6.5-26.4,18.4c-27.7,2.7-41.9,26-49,45.4c-7.5-22.5-23.3-45.7-52.5-45.7
				c-28.4,0-44.1,22-51.9,43.9c-7.7-22-23.5-43.9-51.9-43.9c-41.8,0-56.2,47.6-58,72.8c-0.1,1.6,0.4,3.2,1.5,4.4
				C99.9,383,101.4,383.7,103,383.8L103,383.8z M384.2,298.4c6.7,0,12.2,5.5,12.2,12.2c0,6.7-5.5,12.2-12.2,12.2
				c-6.7,0-12.2-5.5-12.2-12.2C372,303.8,377.4,298.4,384.2,298.4z"/>
		</g>
	</g>
</g>
</svg>
