<?xml version="1.0" encoding="utf-8"?>
<!-- Generator: Adobe Illustrator 27.0.0, SVG Export Plug-In . SVG Version: 6.00 Build 0)  -->
<svg version="1.1" id="VE" xmlns:svg="http://www.w3.org/2000/svg"
	 xmlns="http://www.w3.org/2000/svg" xmlns:xlink="http://www.w3.org/1999/xlink" x="0px" y="0px" viewBox="0 0 512 512"
	 style="enable-background:new 0 0 512 512;" xml:space="preserve">
<style type="text/css">
	.st0{fill:#AA2222;}
	.st1{fill:#FFFFFF;}
</style>
<circle class="st0" cx="256" cy="232.3" r="232.3"/>
<g>
	<g id="path3279">
		<path class="st1" d="M256,338.8c-43.8,0-79.4-35.6-79.4-79.4c0-43.8,35.6-79.4,79.4-79.4c43.8,0,79.4,35.6,79.4,79.4
			C335.4,303.1,299.8,338.8,256,338.8z M256,191.3c-37.6,0-68.1,30.6-68.1,68.1c0,37.6,30.6,68.1,68.1,68.1
			c37.6,0,68.1-30.6,68.1-68.1C324.1,221.8,293.6,191.3,256,191.3z"/>
	</g>
	<g id="path3283">
		<path class="st1" d="M230.4,302c-1.1,0-2.2-0.3-3.2-0.9c-2-1.1-3.2-3.3-3.2-5.6v-72.4c0-2.3,1.2-4.4,3.2-5.6c2-1.1,4.4-1.1,6.4,0
			l62.7,36.2c2,1.1,3.2,3.3,3.2,5.6c0,2.3-1.2,4.4-3.2,5.6l-28.7,16.6c-2.7,1.6-6.1,0.6-7.7-2.1c-1.6-2.7-0.6-6.1,2.1-7.7l21.4-12.3
			l-48.1-27.8v55.5l3.8-2.2c2.7-1.6,6.1-0.6,7.7,2.1c1.6,2.7,0.6,6.1-2.1,7.7l-11.1,6.4C232.6,301.7,231.5,302,230.4,302z
			 M290.6,263.6C290.6,263.6,290.6,263.6,290.6,263.6L290.6,263.6z"/>
	</g>
	<g id="path3287">
		<path class="st1" d="M293.6,426.1c-10.2,0-18.4-8.3-18.4-18.4s8.3-18.4,18.4-18.4c10.2,0,18.4,8.3,18.4,18.4
			S303.8,426.1,293.6,426.1z M293.6,400.6c-3.9,0-7.1,3.2-7.1,7.1s3.2,7.1,7.1,7.1c3.9,0,7.1-3.2,7.1-7.1S297.5,400.6,293.6,400.6z"
			/>
	</g>
	<g id="path3291">
		<path class="st1" d="M225.5,512c-13.9,0-26.8-5.5-36.4-15.5c-9.6-10-14.6-23.2-14.1-37.1c1-25.8,22-47.1,47.8-48.5
			c14.2-0.7,27.6,4.2,37.8,14.1c0.3,0.3,0.8,0.4,1,0.3c0.3,0,0.7-0.2,1-0.7l71.5-123.9c2.2-3.7,7-5.1,10.7-2.9l0,0
			c6.7,3.9,11.5,10.1,13.5,17.6c2,7.5,1,15.3-2.9,22L269.7,486C260.8,502,243.8,512,225.5,512z M225.5,422.2c-0.7,0-1.4,0-2.2,0.1
			c-20,1.1-36.3,17.6-37.1,37.6c-0.4,10.8,3.5,21,10.9,28.8c7.5,7.8,17.5,12.1,28.3,12.1c14.3,0,27.4-7.8,34.4-20.3c0,0,0-0.1,0-0.1
			l85.8-148.6c2.4-4.1,3-8.9,1.8-13.4c-0.9-3.4-2.8-6.4-5.4-8.7l-69.7,120.7c-2,3.4-5.3,5.7-9.2,6.2c-3.8,0.5-7.6-0.7-10.4-3.4
			C245.3,426,235.7,422.2,225.5,422.2z M339.2,307.6C339.2,307.6,339.2,307.6,339.2,307.6C339.2,307.6,339.2,307.6,339.2,307.6
			C339.2,307.6,339.2,307.6,339.2,307.6z M225.5,486.3c-13.7,0-24.9-11.2-24.9-24.9c0-13.7,11.2-24.9,24.9-24.9
			c13.7,0,24.9,11.2,24.9,24.9C250.3,475.1,239.2,486.3,225.5,486.3z M225.5,447.9c-7.5,0-13.6,6.1-13.6,13.6
			c0,7.5,6.1,13.6,13.6,13.6c7.5,0,13.6-6.1,13.6-13.6C239,454,233,447.9,225.5,447.9z"/>
	</g>
	<g id="path3295">
		<path class="st1" d="M361.7,512c-18.4,0-35.3-10-44.2-26.1c-1.5-2.7-0.5-6.2,2.2-7.7c2.7-1.5,6.2-0.5,7.7,2.2
			c6.9,12.5,20.1,20.3,34.4,20.3c10.8,0,20.8-4.3,28.3-12.1c7.5-7.8,11.4-18,10.9-28.8c-0.8-20.1-17.1-36.6-37.1-37.6
			c-11-0.6-21.4,3.3-29.4,10.9c-2.8,2.7-6.6,3.9-10.4,3.4c-3.9-0.5-7.2-2.8-9.2-6.2l-11.4-19.8c-1.6-2.7-0.6-6.2,2.1-7.7
			c2.7-1.6,6.1-0.6,7.7,2.1l11.4,19.8c0.3,0.5,0.8,0.6,1,0.7c0.3,0,0.7,0,1-0.3c10.2-9.8,23.6-14.8,37.8-14.1
			c25.8,1.4,46.8,22.7,47.8,48.5c0.5,13.9-4.5,27.1-14.1,37.1C388.6,506.5,375.6,512,361.7,512z M361.7,486.3
			c-13.7,0-24.9-11.2-24.9-24.9c0-13.7,11.2-24.9,24.9-24.9c13.7,0,24.9,11.2,24.9,24.9C386.6,475.1,375.4,486.3,361.7,486.3z
			 M361.7,447.9c-7.5,0-13.6,6.1-13.6,13.6c0,7.5,6.1,13.6,13.6,13.6c7.5,0,13.6-6.1,13.6-13.6C375.3,454,369.2,447.9,361.7,447.9z
			 M308.9,465.4c-2,0-3.8-1-4.9-2.8l-15.3-26.5c-1.6-2.7-0.6-6.1,2.1-7.7c2.7-1.6,6.1-0.6,7.7,2.1l15.3,26.5
			c1.6,2.7,0.6,6.1-2.1,7.7C310.9,465.2,309.9,465.4,308.9,465.4z"/>
	</g>
	<g id="path3299">
		<path class="st1" d="M442.1,387.8h-119c-3.1,0-5.6-2.5-5.6-5.6c0-3.1,2.5-5.6,5.6-5.6h114.2V142.2H152.6c-3.1,0-5.6-2.5-5.6-5.6
			s2.5-5.6,5.6-5.6h289.5c3.6,0,6.5,2.9,6.5,6.5v243.9C448.6,384.9,445.7,387.8,442.1,387.8z M293.6,387.8H69.9
			c-3.6,0-6.5-2.9-6.5-6.5V137.4c0-3.6,2.9-6.5,6.5-6.5h56.4c3.1,0,5.6,2.5,5.6,5.6s-2.5,5.6-5.6,5.6H74.7v234.3h218.9
			c3.1,0,5.6,2.5,5.6,5.6C299.2,385.3,296.7,387.8,293.6,387.8z M423.3,369h-21.5c-3.6,0-6.5-2.9-6.5-6.5v-21.5
			c0-3.6,2.9-6.5,6.5-6.5h21.5c3.6,0,6.5,2.9,6.5,6.5v21.5C429.8,366.1,426.9,369,423.3,369z M406.7,357.7h11.8v-11.8h-11.8V357.7z
			 M110.1,369H88.7c-3.6,0-6.5-2.9-6.5-6.5v-21.5c0-3.6,2.9-6.5,6.5-6.5h21.5c3.6,0,6.5,2.9,6.5,6.5v21.5
			C116.6,366.1,113.7,369,110.1,369z M93.5,357.7h11.8v-11.8H93.5V357.7z M423.3,322.8h-21.5c-3.6,0-6.5-2.9-6.5-6.5v-21.5
			c0-3.6,2.9-6.5,6.5-6.5h21.5c3.6,0,6.5,2.9,6.5,6.5v21.5C429.8,319.9,426.9,322.8,423.3,322.8z M406.7,311.5h11.8v-11.8h-11.8
			V311.5z M110.1,322.8H88.7c-3.6,0-6.5-2.9-6.5-6.5v-21.5c0-3.6,2.9-6.5,6.5-6.5h21.5c3.6,0,6.5,2.9,6.5,6.5v21.5
			C116.6,319.9,113.7,322.8,110.1,322.8z M93.5,311.5h11.8v-11.8H93.5V311.5z M423.3,276.6h-21.5c-3.6,0-6.5-2.9-6.5-6.5v-21.5
			c0-3.6,2.9-6.5,6.5-6.5h21.5c3.6,0,6.5,2.9,6.5,6.5v21.5C429.8,273.7,426.9,276.6,423.3,276.6z M406.7,265.3h11.8v-11.8h-11.8
			V265.3z M110.1,276.6H88.7c-3.6,0-6.5-2.9-6.5-6.5v-21.5c0-3.6,2.9-6.5,6.5-6.5h21.5c3.6,0,6.5,2.9,6.5,6.5v21.5
			C116.6,273.7,113.7,276.6,110.1,276.6z M93.5,265.3h11.8v-11.8H93.5V265.3z M423.3,230.3h-21.5c-3.6,0-6.5-2.9-6.5-6.5v-21.5
			c0-3.6,2.9-6.5,6.5-6.5h21.5c3.6,0,6.5,2.9,6.5,6.5v21.5C429.8,227.5,426.9,230.3,423.3,230.3z M406.7,219.1h11.8v-11.8h-11.8
			V219.1z M110.1,230.3H88.7c-3.6,0-6.5-2.9-6.5-6.5v-21.5c0-3.6,2.9-6.5,6.5-6.5h21.5c3.6,0,6.5,2.9,6.5,6.5v21.5
			C116.6,227.5,113.7,230.3,110.1,230.3z M93.5,219.1h11.8v-11.8H93.5V219.1z M423.3,184.1h-21.5c-3.6,0-6.5-2.9-6.5-6.5v-21.5
			c0-3.6,2.9-6.5,6.5-6.5h21.5c3.6,0,6.5,2.9,6.5,6.5v21.5C429.8,181.2,426.9,184.1,423.3,184.1z M406.7,172.8h11.8V161h-11.8V172.8
			z M110.1,184.1H88.7c-3.6,0-6.5-2.9-6.5-6.5v-21.5c0-3.6,2.9-6.5,6.5-6.5h21.5c3.6,0,6.5,2.9,6.5,6.5v21.5
			C116.6,181.2,113.7,184.1,110.1,184.1z M93.5,172.8h11.8V161H93.5V172.8z"/>
	</g>
	<g id="path3303">
		<path class="st1" d="M278.9,413.4c-2,0-3.8-1-4.9-2.8L259.2,385c-1.6-2.7-0.6-6.2,2.1-7.7c2.7-1.6,6.2-0.6,7.7,2.1l14.7,25.5
			c1.6,2.7,0.6,6.2-2.1,7.7C280.8,413.1,279.8,413.4,278.9,413.4z"/>
	</g>
</g>
</svg>
