<?xml version="1.0" encoding="utf-8"?>
<!-- Generator: Adobe Illustrator 27.0.0, SVG Export Plug-In . SVG Version: 6.00 Build 0)  -->
<svg version="1.1" id="VFX" xmlns="http://www.w3.org/2000/svg" xmlns:xlink="http://www.w3.org/1999/xlink" x="0px" y="0px"
	 viewBox="0 0 512 512" style="enable-background:new 0 0 512 512;" xml:space="preserve">
<style type="text/css">
	.st0{fill:#AA2222;}
	.st1{fill:#FFFFFF;}
</style>
<circle class="st0" cx="256" cy="232.3" r="232.3"/>
<g>
	<path class="st1" d="M118,182h12v24h-12V182z"/>
	<path class="st1" d="M118,230h12v24h-12V230z"/>
	<path class="st1" d="M88,212h24v12H88V212z"/>
	<path class="st1" d="M136,212h24v12h-24V212z"/>
	<path class="st1" d="M400,260h12v12h-12V260z"/>
	<path class="st1" d="M400,236h12v12h-12V236z"/>
	<path class="st1" d="M388,248h12v12h-12V248z"/>
	<path class="st1" d="M412,248h12v12h-12V248z"/>
	<path class="st1" d="M385.3,308.6l12-6l5.4,10.7l-12,6L385.3,308.6z"/>
	<path class="st1" d="M103.3,319.4l5.4-10.7l12,6l-5.4,10.7L103.3,319.4z"/>
	<path class="st1" d="M322.2,330.3l-8.5-8.5c1.5-1.5,2.4-3.5,2.4-5.7c0-2.2-0.8-4.2-2.4-5.7c-3.1-3.1-8.2-3.1-11.4,0l-8.5-8.5
		c8-7.6,20.4-7.6,28.4,0C330,309.7,330,322.4,322.2,330.3L322.2,330.3z"/>
	<path class="st1" d="M430,152h-18v12h18c3.3,0,6,2.7,6,6v174h-64.1c9.2-19.2,2.5-42.2-15.6-53.5c3.8-14.2,0.9-29.5-8-41.2
		c-8.9-11.8-22.7-18.9-37.4-19.2c-9.5-21.8-31.1-36-55-36s-45.5,14.2-55,36.1c-14.8,0.3-28.5,7.4-37.4,19.2
		c-8.8,11.8-11.8,27-7.9,41.3c-18.1,11.2-24.8,34.3-15.6,53.5H76V170c0-3.3,2.7-6,6-6h18v-12H82c-10,0-18,8-18,18v240
		c0,10,8,18,18,18h126v30c0,10-8,18-18,18h-30v36h192v-36h-30c-10,0-18-8-18-18v-30h126c10,0,18-8,18-18V170
		C448,160,440,152,430,152z M178,296v-12c-3.8,0-7.6,0.5-11.2,1.6c-2-9.8,0.1-20,5.8-28.2c5.8-8.2,14.6-13.6,24.5-15
		c-0.8,3.8-1.1,7.7-1.1,11.6h12c0-26.5,21.5-48,48-48c26.5,0,48,21.5,48,48h12c0-3.9-0.4-7.8-1.1-11.6c9.9,1.4,18.8,6.8,24.5,15
		c5.8,8.2,7.9,18.4,5.8,28.2c-3.7-1-7.4-1.6-11.2-1.6v12c16.6,0,30,13.4,30,30c0,6.5-2.2,12.8-6.2,18H154.2c-4-5.2-6.1-11.5-6.2-18
		C148,309.4,161.4,296,178,296z M340,488v12H172v-12H340z M256,464.2c10,0,18-8,18-18V428h18v30c0,6.5,2.2,12.8,6.2,18h-84.3
		c4-5.2,6.1-11.5,6.1-18v-30h18v18.2C238,456.2,246,464.2,256,464.2z M250,446.2V428h12v18.2c0,3.3-2.7,6-6,6S250,449.6,250,446.2z
		 M436,410c0,3.3-2.7,6-6,6H82c-3.3,0-6-2.7-6-6v-54h360V410z"/>
	<path class="st1" d="M274,368h-36v36h36V368z M262,392h-12v-12h12V392z"/>
	<path class="st1" d="M212.4,321.7c-5.9-5.9-5.9-15.4,0-21.4c5.9-5.9,15.5-5.9,21.4,0l8.5-8.5c-2.8-2.8-6.1-4.9-9.8-6.2
		c2.3-12.1,13.4-20.5,25.7-19.4c12.3,1.1,21.8,11.3,21.8,23.6h12c-0.2-18.7-14.5-34.1-33.2-35.6c-18.7-1.5-35.2,11.5-38.4,29.9
		c-6.2,0.5-12.2,3.2-16.6,7.6c-10.6,10.6-10.6,27.8,0,38.3L212.4,321.7z"/>
	<path class="st1" d="M358,134h12v24h-12V134z"/>
	<path class="st1" d="M358,182h12v24h-12V182z"/>
	<path class="st1" d="M328,164h24v12h-24V164z"/>
	<path class="st1" d="M376,164h24v12h-24V164z"/>
	<path class="st1" d="M136,152h12v12h-12V152z"/>
	<path class="st1" d="M136,128h12v12h-12V128z"/>
	<path class="st1" d="M124,140h12v12h-12V140z"/>
	<path class="st1" d="M148,140h12v12h-12V140z"/>
	<path class="st1" d="M317.7,213.7l24-24l8.5,8.5l-24,24L317.7,213.7z"/>
	<path class="st1" d="M244,152h12v30h-12V152z"/>
	<path class="st1" d="M244,128h12v12h-12V128z"/>
	<path class="st1" d="M371.7,279.7l12-12l8.5,8.5l-12,12L371.7,279.7z"/>
	<path class="st1" d="M155.7,168.3l8.5-8.5l42,42l-8.5,8.5L155.7,168.3z"/>
	<path class="st1" d="M102.4,276.8l7.2-9.6l24,18l-7.2,9.6L102.4,276.8z"/>
	<path class="st1" d="M280.3,180.1l6-18l11.4,3.8l-6,18L280.3,180.1z"/>
</g>
</svg>
